<svg width="64" height="64" viewBox="0 0 64 64" fill="none" xmlns="http://www.w3.org/2000/svg">
<path d="M21.4002 7.9C17.8002 6 15.4002 2 15.4002 2C14.4002 12.5 18.2002 15.1 20.4002 15.1C23.3002 15.2 25.6002 10.2 21.4002 7.9ZM42.5002 7.9C46.1002 6 48.5002 2 48.5002 2C49.5002 12.5 45.7002 15.1 43.5002 15.1C40.6002 15.2 38.3002 10.2 42.5002 7.9Z" fill="#F6C799"/>
<path d="M62.0001 9.30022C56.3001 9.10022 51.7001 10.0002 48.9001 12.0002C47.2001 15.0002 46.3001 20.1002 46.4001 26.4002C52.1001 26.6002 57.1001 26.3002 59.5001 23.7002C61.8001 21.2002 62.1001 15.6002 62.0001 9.30022Z" fill="#6F6F6D"/>
<path d="M60.5002 13.1C56.5002 13 53.3002 13.6 51.3002 15C50.1002 17.1 49.4002 20.7 49.5002 25.1C53.5002 25.2 57.0002 25 58.7002 23.2C60.4002 21.4 60.6002 17.5 60.5002 13.1Z" fill="#F4A19A"/>
<path d="M1.99982 9.30022C7.69982 9.10022 12.2998 10.0002 15.0998 12.0002C16.7998 15.0002 17.6998 20.1002 17.5998 26.4002C11.9998 26.6002 6.89982 26.3002 4.49982 23.7002C2.19982 21.2002 1.89982 15.6002 1.99982 9.30022Z" fill="#6F6F6D"/>
<path d="M3.50016 13.1C7.50016 13 10.7002 13.6 12.7002 15C13.9002 17.1 14.5002 20.7 14.5002 25.1C10.5002 25.2 7.00016 25 5.30016 23.2C3.60016 21.4 3.40016 17.5 3.50016 13.1Z" fill="#F4A19A"/>
<path d="M53 38.3002C53 52.4002 32 60.3002 32 60.3002C32 60.3002 11 52.4002 11 38.3002C11 17.5002 19.2 6.7002 32 6.7002C44.8 6.7002 53 14.4002 53 38.3002Z" fill="#DAE5EF"/>
<path d="M45.4 11.2998C38.4 18.8998 33.5 28.5998 40.6 37.4998C45.3 43.3998 49 43.3998 52.4 42.3998C52.8 41.0998 53 39.6998 53 38.1998C53 24.2998 50.9 15.9998 45.4 11.2998ZM23.5 37.5998C30.4 28.8998 25.9 19.2998 19.1 11.7998C13.1 16.7998 11 25.7998 11 38.2998C11 39.7998 11.2 41.1998 11.6 42.4998C15.1 43.4998 18.8 43.4998 23.5 37.5998Z" fill="#6F6F6D"/>
<path d="M39.3999 31.1998C39.3999 31.1998 41.7999 35.1998 46.1999 33.8998C50.5999 32.5998 50.7999 27.8998 50.7999 27.8998C50.7999 27.8998 48.3999 23.8998 43.9999 25.1998C39.5999 26.4998 39.3999 31.1998 39.3999 31.1998Z" fill="white"/>
<path d="M45.0998 33.5002C46.9223 33.5002 48.3998 31.7541 48.3998 29.6002C48.3998 27.4463 46.9223 25.7002 45.0998 25.7002C43.2773 25.7002 41.7998 27.4463 41.7998 29.6002C41.7998 31.7541 43.2773 33.5002 45.0998 33.5002Z" fill="#3E4347"/>
<path d="M39.3999 31.2C39.3999 31.2 43.1999 25.3 49.0999 27.7C52.7999 29.2 54.1999 26.8 54.1999 26.8C52.1999 27.1 51.2999 26.3 49.0999 25.2C45.0999 23.2 39.3999 24.2 39.3999 31.2Z" fill="#3E4347"/>
<path d="M24.6002 31.1998C24.6002 31.1998 22.2002 35.1998 17.8002 33.8998C13.4002 32.5998 13.2002 27.8998 13.2002 27.8998C13.2002 27.8998 15.6002 23.8998 20.0002 25.1998C24.4002 26.4998 24.6002 31.1998 24.6002 31.1998Z" fill="white"/>
<path d="M18.8996 33.5002C20.7221 33.5002 22.1996 31.7541 22.1996 29.6002C22.1996 27.4463 20.7221 25.7002 18.8996 25.7002C17.0771 25.7002 15.5996 27.4463 15.5996 29.6002C15.5996 31.7541 17.0771 33.5002 18.8996 33.5002Z" fill="#3E4347"/>
<path d="M24.5998 31.2C24.5998 31.2 20.7998 25.3 14.8998 27.7C11.1998 29.2 9.7998 26.8 9.7998 26.8C11.7998 27.1 12.6998 26.3 14.8998 25.2C18.8998 23.2 24.5998 24.2 24.5998 31.2Z" fill="#3E4347"/>
<path d="M14.7998 48.2002C14.7998 40.1002 18.7998 44.2002 31.9998 44.2002C45.1998 44.2002 49.1998 40.1002 49.1998 48.2002C49.1998 59.8002 41.0998 62.0002 31.9998 62.0002C22.8998 62.0002 14.7998 59.8002 14.7998 48.2002Z" fill="#F4A19A"/>
<path d="M26.4001 50.0998C25.2001 46.6998 23.0001 44.7998 21.4001 45.8998C19.8001 46.8998 19.5001 50.4998 20.7001 53.8998C21.9001 57.2998 24.1001 59.1998 25.7001 58.0998C27.3001 56.9998 27.6001 53.4998 26.4001 50.0998ZM42.6001 45.8998C41.0001 44.8998 38.8001 46.6998 37.6001 50.0998C36.4001 53.4998 36.7001 57.0998 38.3001 58.0998C39.9001 59.0998 42.1001 57.2998 43.3001 53.8998C44.5001 50.4998 44.2001 46.8998 42.6001 45.8998Z" fill="#BC6464"/>
</svg>
