<svg width="64" height="64" viewBox="0 0 64 64" fill="none" xmlns="http://www.w3.org/2000/svg">
<path d="M7.11111 14.2222C7.11111 14.2222 0 17.7778 0 33.7778C0 33.7778 10.6667 32 12.4444 28.4444C12.4444 28.4444 16 6.66665 7.11111 14.2222ZM56.88 14.2986C56.88 14.2986 63.9911 17.8542 63.9911 33.8542C63.9911 33.8542 53.3244 32.0782 51.5467 28.5226C51.5467 28.5226 47.9911 6.74309 56.88 14.2986Z" fill="#99AAB5"/>
<path d="M1.77769 1.77787C-0.0178704 3.53787 3.55546 16.0001 10.6666 17.7779C17.7777 19.5556 17.7777 8.88898 15.9999 8.88898C8.8888 8.88898 5.40791 -1.77769 1.77769 1.77787ZM62.7501 1.77787C64.5475 3.53787 60.9724 16.0001 53.8612 17.7779C46.7501 19.5556 46.7501 8.88898 48.5279 8.88898C55.639 8.88898 59.1217 -1.77769 62.7501 1.77787Z" fill="#FFE8B6"/>
<path d="M39.0687 55.1112H24.9335C15.09 55.1112 7.11133 47.1326 7.11133 37.2908V21.3779C7.11133 11.5343 15.09 3.55566 24.9335 3.55566H39.0687C48.9104 3.55566 56.8891 11.5343 56.8891 21.3779V37.2908C56.8891 47.1326 48.9104 55.1112 39.0687 55.1112Z" fill="#CCD6DD"/>
<path d="M62.2218 49.7778C62.2218 59.5947 54.2609 64 44.444 64H19.5551C9.73645 64 1.77734 59.5947 1.77734 49.7778C1.77734 39.9609 9.73645 32 19.5551 32H44.444C54.2609 32 62.2218 39.9609 62.2218 49.7778Z" fill="#E6AAAA"/>
<path d="M16.8893 51.5556C18.3621 51.5556 19.556 49.1678 19.556 46.2222C19.556 43.2767 18.3621 40.8889 16.8893 40.8889C15.4166 40.8889 14.2227 43.2767 14.2227 46.2222C14.2227 49.1678 15.4166 51.5556 16.8893 51.5556Z" fill="#C1694F"/>
<path d="M47.111 51.5556C48.5838 51.5556 49.7777 49.1678 49.7777 46.2222C49.7777 43.2767 48.5838 40.8889 47.111 40.8889C45.6382 40.8889 44.4443 43.2767 44.4443 46.2222C44.4443 49.1678 45.6382 51.5556 47.111 51.5556Z" fill="#C1694F"/>
<path d="M19.5557 21.3334C19.5557 21.3334 19.5557 17.7778 23.1112 17.7778C26.6668 17.7778 26.6668 21.3334 26.6668 21.3334V24.8889C26.6668 24.8889 26.6668 28.4445 23.1112 28.4445C19.5557 28.4445 19.5557 24.8889 19.5557 24.8889V21.3334ZM37.3334 21.3334C37.3334 21.3334 37.3334 17.7778 40.889 17.7778C44.4446 17.7778 44.4446 21.3334 44.4446 21.3334V24.8889C44.4446 24.8889 44.4446 28.4445 40.889 28.4445C37.3334 28.4445 37.3334 24.8889 37.3334 24.8889V21.3334Z" fill="#272B2B"/>
</svg>
