<svg width="75" height="52" viewBox="0 0 75 52" fill="none" xmlns="http://www.w3.org/2000/svg">
<path d="M-2.48611 57.4583C-2.71666 40.8293 -3.91997 31.77 -9 16.3333C7.97504 25.4051 12.8659 34.6636 14.625 57.4583H-2.48611Z" fill="#7FE881"/>
<path d="M69.5315 57.5556C69.7251 40.966 70.7353 31.928 75 16.5278C60.7493 25.5782 56.6434 34.8148 55.1667 57.5556H69.5315Z" fill="#7FE881"/>
<path d="M32.1981 57.361C32.3916 40.7714 33.4018 31.7335 37.6665 16.3333C23.4159 25.3836 19.3099 34.6202 17.8332 57.361H32.1981Z" fill="#7FE881"/>
<path d="M9.44758 57.3611C9.125 34.1671 7.44136 21.5311 0.333496 0C24.0846 12.6533 30.9278 25.5671 33.389 57.3611H9.44758Z" fill="#5BC980"/>
<path d="M56.3447 57.3611C56.654 34.1671 58.2683 21.5311 65.0835 0C42.3104 12.6533 35.749 25.5671 33.389 57.3611H56.3447Z" fill="#5BC980"/>
</svg>
