<svg width="12" height="17" viewBox="0 0 12 17" fill="none" xmlns="http://www.w3.org/2000/svg">
<path d="M11.3478 17V12.5652C11.3467 11.5854 10.9569 10.6461 10.2641 9.95329C9.57128 9.26048 8.63196 8.87074 7.65217 8.86957H4.69565C3.71586 8.87074 2.77654 9.26048 2.08373 9.95329C1.39091 10.6461 1.00117 11.5854 1 12.5652V17" stroke="#9A9A9D"/>
<path d="M4.39827 1.03856C4.92379 0.687422 5.54164 0.5 6.17368 0.5C6.59334 0.5 7.00889 0.582658 7.3966 0.743255C7.78432 0.903851 8.13661 1.13924 8.43335 1.43598C8.73009 1.73273 8.96548 2.08501 9.12608 2.47273C9.28668 2.86044 9.36933 3.27599 9.36933 3.69565C9.36933 4.32769 9.18191 4.94554 8.83077 5.47106C8.47963 5.99658 7.98053 6.40618 7.3966 6.64805C6.81268 6.88992 6.17014 6.95321 5.55024 6.8299C4.93035 6.7066 4.36093 6.40224 3.91401 5.95532C3.46709 5.5084 3.16274 4.93899 3.03943 4.31909C2.91613 3.6992 2.97941 3.05666 3.22128 2.47273C3.46315 1.8888 3.87275 1.38971 4.39827 1.03856Z" stroke="#9A9A9D"/>
</svg>
