<svg width="375" height="201" viewBox="0 0 375 201" fill="none" xmlns="http://www.w3.org/2000/svg">
<path fill-rule="evenodd" clip-rule="evenodd" d="M0 24C0 10.7452 10.7452 0 24 0H351C364.255 0 375 10.7452 375 24V156.162C375 161.218 373.412 165.988 370.653 169.91C371.104 166.43 371.862 163.083 373.123 158.813C365.834 163.154 363.239 167.575 362.192 177.303C362.157 177.321 362.123 177.339 362.088 177.357L362.013 177.395L361.944 177.43L361.862 177.47L361.79 177.506C361.741 177.53 361.692 177.554 361.643 177.578C361.621 177.374 361.598 177.173 361.575 176.974C361.753 172.749 362.226 169.636 363.422 165.008C361.81 166.105 360.564 167.21 359.599 168.487C357.878 164.345 355.027 161.563 350.212 158.813C351.373 162.582 352.125 165.631 352.609 168.688C352.389 168.82 352.172 168.953 351.961 169.086C350.751 167.549 349.12 166.273 346.91 165.008C347.675 167.501 348.192 169.555 348.539 171.579C345.257 174.425 343.478 177.742 342.475 182.737C342.145 182.814 341.815 182.89 341.485 182.967C341.764 180.392 342.243 177.943 343.057 174.792C341.445 175.89 340.2 176.994 339.234 178.271C337.514 174.129 334.662 171.347 329.848 168.598C331.223 173.065 332.025 176.523 332.487 180.178C331.225 178.023 329.352 176.4 326.545 174.792C327.86 179.075 328.441 182.064 328.69 185.829C327.884 186.003 327.081 186.176 326.279 186.346C326.562 184.671 326.948 182.926 327.475 180.887C324.776 182.725 323.105 184.582 322.055 187.235C321.804 187.287 321.553 187.339 321.303 187.391C321.719 183.278 322.505 179.568 323.966 174.619C317.811 178.285 315.003 182.008 313.648 188.935C313.324 188.998 313.001 189.062 312.678 189.125C312.955 186.499 313.436 184.02 314.265 180.814C312.653 181.911 311.407 183.016 310.442 184.293C308.721 180.151 305.87 177.369 301.055 174.619C302.431 179.086 303.232 182.543 303.695 186.199C302.432 184.044 300.559 182.421 297.753 180.814C298.606 183.591 299.15 185.824 299.495 188.077C297.734 189.353 296.451 190.666 295.509 192.272C295.041 192.352 294.573 192.432 294.105 192.51C294.557 189.023 295.315 185.671 296.578 181.394C291.041 184.691 288.213 188.035 286.714 193.718C286.324 193.779 285.934 193.84 285.545 193.901C285.836 191.959 286.26 189.975 286.877 187.588C285.265 188.685 284.02 189.79 283.054 191.067C281.334 186.925 278.482 184.143 273.667 181.394C275.043 185.861 275.845 189.318 276.307 192.974C275.045 190.819 273.172 189.196 270.365 187.588C271.341 190.768 271.913 193.234 272.244 195.834C271.289 195.963 270.335 196.089 269.383 196.213C269.667 194.513 270.057 192.744 270.593 190.672C267.992 192.442 266.347 194.231 265.291 196.731L264.853 196.785L264.456 196.833C264.881 192.855 265.663 189.215 267.084 184.404C261.24 187.885 258.413 191.417 256.982 197.696L256.456 197.753L255.925 197.81C256.215 195.574 256.671 193.355 257.383 190.599C255.771 191.696 254.525 192.801 253.56 194.077C251.839 189.935 248.988 187.154 244.173 184.404C245.549 188.872 246.351 192.329 246.813 195.985C245.551 193.83 243.677 192.206 240.871 190.599C241.452 192.493 241.89 194.135 242.22 195.702C240.905 196.804 239.909 197.972 239.151 199.361L238.857 199.384L238.46 199.414L237.904 199.456C238.352 195.907 239.115 192.516 240.399 188.168C235.039 191.36 232.217 194.595 230.682 199.953C230.444 199.968 230.206 199.983 229.968 199.997L229.467 200.027C229.753 198.289 230.149 196.485 230.698 194.362C229.086 195.459 227.84 196.564 226.875 197.841C225.154 193.699 222.303 190.917 217.488 188.168C218.864 192.635 219.666 196.093 220.128 199.749C218.866 197.593 216.992 195.97 214.185 194.362C214.919 196.75 215.423 198.736 215.77 200.678C214.912 200.708 214.055 200.736 213.198 200.761C213.482 199.051 213.874 197.274 214.413 195.188C211.947 196.867 210.339 198.562 209.279 200.866C208.962 200.873 208.645 200.88 208.327 200.887C208.763 197.087 209.538 193.544 210.904 188.92C205.449 192.169 202.623 195.462 201.107 200.992L200.851 200.994L200.461 200.997L199.937 201C200.225 199.193 200.632 197.327 201.203 195.115C199.591 196.212 198.345 197.317 197.38 198.594C195.659 194.452 192.808 191.67 187.993 188.92C188.712 191.256 189.275 193.315 189.714 195.271C188.892 195.837 188.167 196.406 187.527 197.001C186.711 196.354 185.777 195.738 184.708 195.124C185.124 193.212 185.653 191.197 186.326 188.92C180.986 192.1 178.165 195.324 176.627 200.645C176.376 200.636 176.125 200.627 175.874 200.618L175.424 200.601C175.707 198.917 176.095 197.165 176.625 195.115C175.012 196.212 173.767 197.317 172.802 198.594C171.081 194.452 168.23 191.67 163.415 188.92C164.749 193.251 165.543 196.633 166.011 200.167L165.846 200.158C164.8 198.505 163.365 197.165 161.382 195.885C161.495 195.417 161.616 194.935 161.745 194.436C161.304 194.736 160.89 195.037 160.502 195.341C160.374 195.266 160.244 195.19 160.113 195.115L160.179 195.33L160.206 195.42L160.244 195.547C158.759 196.757 157.667 198.04 156.86 199.603C156.484 199.577 156.109 199.55 155.732 199.524C156.18 195.95 156.944 192.543 158.236 188.168C153.203 191.165 150.408 194.2 148.816 198.994C148.48 198.967 148.145 198.939 147.809 198.911L147.506 198.886C147.769 197.492 148.105 196.025 148.535 194.362C146.923 195.46 145.677 196.564 144.712 197.841C142.991 193.699 140.14 190.917 135.325 188.168C136.479 191.915 137.229 194.951 137.714 197.99C137.344 197.954 136.974 197.917 136.604 197.88C136.021 197.227 135.351 196.618 134.582 196.033C134.863 194.388 135.245 192.671 135.761 190.672C132.996 192.554 131.311 194.458 130.266 197.215C130.041 197.191 129.817 197.166 129.593 197.142C130.01 193.042 130.795 189.339 132.253 184.404C126.848 187.623 124.024 190.886 122.498 196.325L121.826 196.244L121.334 196.185C121.618 194.47 122.011 192.689 122.551 190.599C120.939 191.696 119.693 192.801 118.728 194.078C117.007 189.936 114.156 187.154 109.341 184.404C110.59 188.459 111.365 191.681 111.844 194.975L111.259 194.897C110.432 193.792 109.398 192.825 108.101 191.905C108.356 190.595 108.675 189.213 109.076 187.662C106.431 189.463 104.773 191.283 103.72 193.852L103.261 193.787L102.948 193.742C103.375 189.795 104.156 186.172 105.567 181.394C100.364 184.492 97.5524 187.632 95.9887 192.714C95.5797 192.652 95.1703 192.59 94.7605 192.528C95.0337 191.01 95.3934 189.417 95.866 187.588C94.2537 188.685 93.0084 189.79 92.0431 191.067C90.3223 186.925 87.4712 184.143 82.6561 181.394C83.7816 185.048 84.5227 188.026 85.0083 190.99C84.5451 190.915 84.0814 190.839 83.6171 190.763C82.8515 189.967 81.9477 189.236 80.8794 188.526C81.1656 186.143 81.633 183.819 82.3904 180.887C78.9737 183.213 77.2051 185.571 76.2573 189.533L76.0382 189.496C76.3903 184.484 77.1753 180.396 78.8812 174.619C72.9408 178.157 70.1179 181.748 68.71 188.223L68.3299 188.155L67.7195 188.047C68.0092 185.803 68.4655 183.579 69.18 180.814C67.5679 181.911 66.3227 183.016 65.3575 184.293C63.6366 180.15 60.7855 177.369 55.9706 174.619C57.3465 179.086 58.1479 182.544 58.6104 186.199C57.3478 184.044 55.4748 182.421 52.6684 180.814C53.2021 182.552 53.615 184.077 53.9337 185.528C53.0083 185.354 52.0805 185.179 51.1504 185.003C51.3853 181.643 51.8793 178.803 52.8963 174.866C49.3034 177.312 47.5329 179.793 46.6229 184.138L46.5023 184.115C46.832 178.805 47.6096 174.619 49.3875 168.598C43.3032 172.221 40.4894 175.901 39.1165 182.677L38.1683 182.49C38.4539 180.086 38.9227 177.748 39.6864 174.792C38.0743 175.89 36.8291 176.994 35.8639 178.271C34.143 174.129 31.2919 171.347 26.477 168.598C27.853 173.066 28.6545 176.523 29.117 180.179C27.9455 178.179 26.2485 176.638 23.7677 175.141C24.0048 171.815 24.4989 168.988 25.5082 165.082C21.6728 167.692 19.9142 170.344 19.0621 175.259C19.3581 169.496 20.1196 165.181 21.9999 158.813C15.1708 162.88 12.4619 167.018 11.2861 175.525C11.0405 175.372 10.7981 175.215 10.5588 175.054C10.7962 171.733 11.2904 168.909 12.2983 165.008C10.6863 166.105 9.44121 167.21 8.47605 168.486C6.91817 164.737 4.43402 162.102 0.405232 159.597C0.13878 158.168 0 156.699 0 155.203V24ZM299.165 191.637C299.311 190.904 299.478 190.146 299.668 189.347C299.753 190.051 299.82 190.767 299.874 191.512L299.629 191.555L299.165 191.637ZM189.76 195.478C189.493 196.521 189.264 197.487 189.068 198.409C189.674 199.056 190.191 199.745 190.633 200.5C190.421 198.823 190.137 197.188 189.76 195.478ZM184.702 195.151C185.131 196.549 185.481 197.809 185.767 199.003C185.358 199.586 185.003 200.206 184.695 200.878C184.381 200.871 184.067 200.864 183.753 200.857C183.972 198.947 184.278 197.102 184.702 195.151ZM160.92 197.933C160.783 198.589 160.663 199.223 160.557 199.847C160.836 199.865 161.115 199.882 161.393 199.9C161.254 199.262 161.097 198.611 160.92 197.933ZM23.6849 176.523C24.0064 177.663 24.2717 178.72 24.4905 179.742L23.5886 179.558C23.6077 178.473 23.6381 177.472 23.6849 176.523ZM352.431 169.727C352.503 169.475 352.576 169.22 352.652 168.962C352.725 169.437 352.791 169.913 352.852 170.393C352.718 170.165 352.578 169.943 352.431 169.727ZM350.142 180.923C350.153 180.816 350.165 180.71 350.177 180.604H351.106L351.089 180.642L351.063 180.701C350.756 180.775 350.449 180.849 350.142 180.923Z" fill="url(#paint0_linear_115_4084)"/>
<defs>
<linearGradient id="paint0_linear_115_4084" x1="187.5" y1="-58.3053" x2="187.5" y2="201" gradientUnits="userSpaceOnUse">
<stop stop-color="#00AA6B"/>
<stop offset="1" stop-color="#00AA6B" stop-opacity="0.59"/>
</linearGradient>
</defs>
</svg>
