<?xml version="1.0" encoding="utf-8"?>
<!-- Generator: Adobe Illustrator 16.0.0, SVG Export Plug-In . SVG Version: 6.00 Build 0)  -->
<!DOCTYPE svg PUBLIC "-//W3C//DTD SVG 1.1//EN" "http://www.w3.org/Graphics/SVG/1.1/DTD/svg11.dtd">
<svg version="1.1" id="Layer_1" xmlns="http://www.w3.org/2000/svg" xmlns:xlink="http://www.w3.org/1999/xlink" x="0px" y="0px"
	 width="16.5px" height="11.5px" viewBox="0 0 16.5 11.5" enable-background="new 0 0 16.5 11.5" xml:space="preserve">
<polygon fill="#FFFFFF" points="2.078,11.5 16.088,11.5 16.053,10.531 16.018,8.859 16.02,8.203 16.031,7.453 16.043,7.031 
	16.064,6.454 16.084,5.951 16.119,5.254 16.145,4.828 16.164,4.5 16.182,4.234 16.191,4.054 16.025,4.222 15.791,4.463 
	15.592,4.673 15.426,4.854 15.152,5.157 14.959,5.385 14.738,5.648 14.551,5.883 14.266,6.254 14.057,6.547 13.826,6.887 
	13.617,7.211 13.473,7.458 13.291,7.777 13.168,8.009 13.078,8.179 12.764,7.713 12.488,7.336 11.957,6.65 11.436,6.043 
	10.725,5.302 10.27,4.88 9.785,4.457 9.275,4.054 8.617,3.566 7.835,3.05 7.073,2.597 6.234,2.146 5.303,1.697 4.658,1.405 
	3.856,1.073 3.216,0.821 2.558,0.577 2.199,0.45 2.067,0.403 2.296,0.842 2.467,1.17 3.587,3.407 4.004,4.284 4.245,4.984 
	4.401,5.641 4.448,6.063 4.463,6.516 4.432,7.031 4.292,7.734 4.182,8.188 4.026,8.656 3.932,8.813 3.873,8.886 3.423,8.628 
	2.916,8.361 2.594,8.192 2.229,8.031 1.745,7.844 1.401,7.734 1.088,7.641 0.62,7.516 0.213,7.422 0.1,7.385 0.294,7.788 
	0.551,8.323 0.708,8.651 0.851,8.947 1.19,9.652 1.363,10.012 1.599,10.503 1.741,10.799 1.953,11.24 "/>
</svg>
