<?xml version="1.0" encoding="utf-8"?>
<!-- Generator: Adobe Illustrator 16.0.0, SVG Export Plug-In . SVG Version: 6.00 Build 0)  -->
<!DOCTYPE svg PUBLIC "-//W3C//DTD SVG 1.1//EN" "http://www.w3.org/Graphics/SVG/1.1/DTD/svg11.dtd">
<svg version="1.1" id="Layer_1" xmlns="http://www.w3.org/2000/svg" xmlns:xlink="http://www.w3.org/1999/xlink" x="0px" y="0px"
	 width="75px" height="52px" viewBox="0 0 75 52" enable-background="new 0 0 75 52" xml:space="preserve">
<path fill="#FFFFFF" d="M-2.486,57.459C-2.717,40.829-3.92,31.77-9,16.333c16.975,9.072,21.866,18.331,23.625,41.125H-2.486z"/>
<path fill="#FFFFFF" d="M69.531,57.556c0.193-16.59,1.204-25.628,5.469-41.028c-14.25,9.05-18.356,18.287-19.834,41.028H69.531z"/>
<path fill="#FFFFFF" d="M32.198,57.361c0.193-16.59,1.204-25.628,5.468-41.028c-14.25,9.05-18.356,18.287-19.833,41.028H32.198z"/>
<path fill="#FFFFFF" d="M9.448,57.361C9.125,34.167,7.441,21.531,0.333,0c23.751,12.653,30.594,25.567,33.056,57.361H9.448z"/>
<path fill="#FFFFFF" d="M56.345,57.361c0.31-23.194,1.924-35.83,8.739-57.361C42.311,12.653,35.749,25.567,33.389,57.361H56.345z"/>
</svg>
