<?xml version="1.0" standalone="no"?>
<!DOCTYPE svg PUBLIC "-//W3C//DTD SVG 20010904//EN"
 "http://www.w3.org/TR/2001/REC-SVG-20010904/DTD/svg10.dtd">
<svg version="1.0" xmlns="http://www.w3.org/2000/svg"
 width="512.000000pt" height="512.000000pt" viewBox="0 0 512.000000 512.000000"
 preserveAspectRatio="xMidYMid meet">

<g transform="translate(0.000000,512.000000) scale(0.100000,-0.100000)"
fill="#000000" stroke="none">
<path d="M3526 3757 c-20 -29 -152 -136 -219 -176 -64 -39 -150 -78 -400 -182
-297 -124 -382 -168 -461 -240 -74 -68 -110 -131 -126 -219 -19 -105 -4 -208
52 -353 l30 -78 56 53 c85 80 132 109 357 218 224 108 332 174 443 269 175
151 268 322 292 540 5 47 6 111 2 141 l-8 55 -18 -28z m-989 -784 c20 -26 15
-74 -9 -100 -37 -40 -96 -27 -117 26 -14 32 -4 63 28 89 21 16 82 7 98 -15z"/>
</g>
</svg>
